PathFileType	4	(X/Y/Z)	D:\TRACE\spot_10-12-23\spot_body_motion_3_4-platform.trc
DataRate	CameraRate	NumFrames	NumMarkers	Units	OrigDataRate	OrigDataStartFrame	OrigNumFrames
100.00	100.00	      48	5	mm	100.00	1751	      7000
Frame#	Time	Left_Front			Right_Front			Left_Aft			Right_Aft			Post			
		X1	Y1	Z1	X2	Y2	Z2	X3	Y3	Z3	X4	Y4	Z4	X5	Y5	Z5	

1751	17.500	-812.74054	-24.61172	-648.19275	759.66577	-19.98869	-641.41571	-729.77661	26.35275	488.59381	687.37622	34.77642	574.47583	-29.73215	697.24701	-999.84100	
1752	17.510	-812.45697	-25.33467	-648.34357	760.03107	-20.94007	-641.54346	-729.44879	27.13074	488.42691	687.80243	35.61654	574.18146	-29.60367	695.97791	-1001.44385	
1753	17.520	-811.95557	-26.50972	-648.65466	760.40613	-21.99996	-641.85706	-729.13696	27.80137	488.15314	688.10944	36.31549	574.00830	-29.26619	694.42047	-1002.64258	
1754	17.530	-811.13104	-28.01023	-649.06006	761.17389	-22.92162	-641.89252	-728.73627	28.37690	488.00418	688.32245	37.02387	573.65692	-28.66737	692.96027	-1004.02020	
1755	17.540	-811.32141	-28.37204	-648.93512	761.51105	-23.87386	-642.21332	-728.33929	28.99258	487.59515	689.04175	37.88934	573.45441	-27.88883	691.41260	-1005.39313	
1756	17.550	-810.60889	-29.46198	-649.21777	761.92279	-25.01181	-642.46289	-727.78735	29.54913	487.30396	689.58777	38.76194	573.31464	-27.83938	689.94873	-1006.56232	
1757	17.560	-810.11176	-30.58219	-649.41870	762.08185	-26.03119	-642.58881	-727.25470	30.39420	486.88748	690.19550	39.42216	572.93207	-27.18130	688.47156	-1007.96313	
1758	17.570	-809.68005	-31.67219	-649.50299	762.71448	-26.91021	-642.75397	-726.87708	31.18964	486.62781	690.59772	40.29736	572.63104	-26.83032	686.62494	-1008.80664	
1759	17.580	-808.83521	-32.83753	-649.85583	763.30127	-27.86604	-643.04181	-726.38763	31.79675	486.42197	691.08923	41.20578	572.33484	-26.23049	685.31714	-1009.92145	
1760	17.590	-808.74878	-33.51937	-649.98694	763.88007	-28.80623	-643.21906	-725.96155	32.45750	486.01163	691.55884	41.87640	572.15350	-25.55582	683.66827	-1011.04596	
1761	17.600	-808.12952	-34.60514	-650.14429	764.38367	-30.21090	-643.26434	-725.33539	32.99766	485.77087	692.18640	42.75727	571.66364	-25.08121	682.12646	-1011.88446	
1762	17.610	-807.48431	-35.77937	-650.13922	765.20490	-31.09686	-643.33716	-724.69055	33.75684	485.44562	692.61438	43.39471	571.55469	-24.56092	680.51837	-1013.24371	
1763	17.620	-806.85980	-36.74684	-650.42615	765.72272	-31.87169	-643.59296	-724.07367	34.53010	485.25409	693.08679	44.25610	571.27533	-24.09552	679.14795	-1014.27551	
1764	17.630	-806.07123	-37.75959	-650.79541	766.07800	-32.78694	-643.71173	-723.56268	35.03719	485.11560	693.71338	45.21181	570.96472	-23.36942	677.53516	-1015.64191	
1765	17.640	-805.88605	-38.34113	-650.85291	766.64911	-34.11198	-643.69214	-722.89661	35.67087	485.00677	694.54358	46.03069	570.70593	-22.86234	676.15717	-1016.89166	
1766	17.650	-805.23108	-39.61429	-650.90234	767.28351	-34.93829	-643.91248	-722.44305	36.24328	484.39120	695.11786	46.73803	570.48865	-22.33691	674.35364	-1018.10718	
1767	17.660	-804.58667	-40.77251	-651.00482	768.24695	-35.90898	-644.28473	-721.61078	37.06723	484.07724	695.54785	47.45243	570.16406	-21.69064	673.07025	-1019.36804	
1768	17.670	-803.71649	-41.72997	-651.35864	768.69684	-36.84258	-644.48096	-721.05005	37.67419	483.78894	696.48663	48.30259	569.80017	-20.67825	671.27618	-1020.82086	
1769	17.680	-803.23639	-42.47527	-651.37921	769.25116	-37.83782	-644.56616	-720.31024	38.33624	483.56943	696.26746	48.91787	569.77228	-20.22361	669.82520	-1022.24396	
1770	17.690	-802.43903	-43.81287	-651.49384	769.78827	-39.00284	-644.87567	-719.69843	38.79971	483.34460	697.30872	49.78836	569.33838	-19.83957	668.20313	-1023.36212	
1771	17.700	-801.99628	-44.64487	-651.59589	770.70135	-39.94616	-644.92627	-718.83826	39.68841	483.14136	698.20233	50.59635	568.97760	-18.87409	666.79413	-1024.91260	
1772	17.710	-800.85718	-45.86753	-651.93127	771.51215	-40.72878	-645.16974	-718.48828	40.31823	482.68478	699.28589	51.27377	568.68243	-18.13957	665.20801	-1026.05090	
1773	17.720	-800.51337	-46.42797	-652.05652	772.18524	-41.70117	-645.36322	-717.39081	40.93258	482.62900	700.02777	52.15294	568.25659	-17.29657	663.55975	-1027.27759	
1774	17.730	-799.42896	-47.79163	-652.17236	773.06995	-42.58442	-645.40515	-716.79065	41.51666	482.38092	700.73242	52.81744	568.01813	-16.51926	662.26184	-1028.40845	
1775	17.740	-798.84100	-48.39434	-652.30023	773.76990	-43.69597	-645.28674	-715.81781	42.04320	482.12897	701.60687	53.64941	567.72626	-15.51588	660.68024	-1029.65820	
1776	17.750	-797.41162	-49.68584	-652.71533	774.77948	-44.67579	-645.51343	-715.09412	42.71255	481.52872	702.68103	54.19048	566.94116	-14.91769	659.26929	-1030.84424	
1777	17.760	-796.96442	-50.37899	-652.74585	775.30133	-45.38344	-645.86426	-714.11462	43.03346	481.66235	703.57312	54.90289	566.83362	-14.14248	657.78247	-1031.82959	
1778	17.770	-796.24921	-51.35673	-652.71912	776.22607	-46.36690	-645.97534	-713.57263	43.89299	481.06250	704.23944	55.62596	566.67554	-13.07810	656.46399	-1032.97961	
1779	17.780	-795.22772	-52.33171	-652.87946	777.07910	-47.13857	-646.11566	-712.64783	44.50860	480.93173	705.15979	56.42614	566.42139	-12.57866	655.06329	-1034.29272	
1780	17.790	-794.55457	-52.98113	-653.05780	778.12103	-48.02005	-646.26721	-711.84692	45.03367	480.68900	705.74200	57.08732	566.10602	-11.84448	653.73663	-1035.20764	
1781	17.800	-793.27258	-54.17479	-653.34241	778.65552	-48.80688	-646.48053	-710.96698	45.47205	480.53696	706.65814	57.66203	565.94409	-10.55468	652.64075	-1036.41260	
1782	17.810	-792.43048	-54.86879	-653.43542	779.47241	-49.91260	-646.44794	-710.02203	46.13204	480.08728	707.80927	58.33002	565.77118	-9.88202	651.01349	-1037.41150	
1783	17.820	-791.67969	-55.52936	-653.36707	780.72845	-50.69575	-646.48083	-709.23016	46.63907	479.85736	708.50537	58.93143	565.52679	-9.09795	650.01642	-1038.29810	
1784	17.830	-790.69202	-56.54832	-653.63776	781.53998	-51.38359	-646.67163	-708.17419	47.30103	479.69449	709.58929	59.73693	565.37549	-7.76506	648.77399	-1039.25818	
1785	17.840	-790.02435	-57.17722	-653.74634	782.29419	-52.06896	-646.66827	-707.28247	47.65654	479.70401	710.59717	60.32170	565.21338	-7.05551	647.34192	-1040.18066	
1786	17.850	-788.75793	-57.94516	-653.81818	783.47363	-52.65882	-646.92810	-706.42279	48.22781	479.25507	711.20264	60.73012	564.73077	-6.48425	646.45123	-1041.07642	
1787	17.860	-787.93268	-58.33707	-653.90594	784.57343	-53.39437	-646.94891	-705.34668	48.53511	479.14850	712.21057	61.40274	564.38770	-5.09124	645.27936	-1042.02515	
1788	17.870	-787.12122	-59.10197	-653.93225	785.39752	-53.91966	-647.03577	-704.41589	48.94085	478.64557	713.25470	62.03390	564.54773	-4.34022	644.04144	-1042.60999	
1789	17.880	-785.60522	-60.34489	-654.40356	786.41077	-54.58515	-647.32910	-703.53473	49.36251	478.58945	714.43170	62.50731	564.49432	-3.37486	642.99615	-1043.47925	
1790	17.890	-784.63934	-60.64051	-654.28345	787.53900	-55.26343	-647.33295	-702.43372	49.96159	478.49008	715.59064	63.12340	564.44580	-2.07685	642.10724	-1044.50305	
1791	17.900	-784.07721	-61.04708	-654.21063	788.51031	-55.87201	-647.35907	-701.42200	50.34156	478.36127	716.02124	63.44069	563.70953	-1.12792	640.86438	-1045.38940	
1792	17.910	-783.04352	-61.69703	-654.18182	789.28827	-56.35767	-647.49536	-700.28052	50.71938	478.12109	717.50574	63.95247	564.07800	-0.00035	640.12195	-1046.16724	
1793	17.920	-781.40131	-62.68440	-654.54156	790.58105	-57.14133	-647.43781	-699.41571	51.07632	477.89136	718.26563	64.36038	563.27301	1.21947	639.18170	-1046.84607	
1794	17.930	-780.97351	-62.61951	-654.58148	791.49963	-57.56444	-647.83405	-698.40869	51.41410	477.71921	719.56641	64.94106	563.77344	2.04855	638.37689	-1047.66736	
1795	17.940	-779.73846	-63.52615	-654.62256	792.48877	-58.03888	-647.80865	-697.42145	51.70601	477.54865	720.61005	65.20288	563.62146	3.00282	637.60364	-1048.34119	
1796	17.950	-778.61194	-64.19440	-654.53516	793.59265	-58.42501	-647.78491	-696.28265	52.06644	477.29715	721.76935	65.63746	563.67816	4.23782	636.69238	-1049.19055	
1797	17.960	-777.70679	-64.46318	-654.59143	794.77356	-58.79581	-647.84814	-695.13855	52.12640	477.37109	722.51263	65.91614	562.64655	5.01029	636.15747	-1049.95288	
1798	17.970	-776.74945	-64.60178	-654.63953	795.73138	-59.34756	-647.88251	-694.04834	52.60329	477.43942	723.32288	66.27246	562.50903	6.20570	635.40594	-1050.60059	
